<svg width="12" height="18" viewBox="0 0 12 18" fill="none" xmlns="http://www.w3.org/2000/svg">
<path d="M11.6685 0.499992C11.6685 0.367384 11.6158 0.240207 11.522 0.146439C11.4282 0.0526709 11.3011 -7.59214e-06 11.1685 -7.59214e-06H8.66846C7.40958 -0.0627167 6.17705 0.375384 5.24018 1.21857C4.3033 2.06176 3.73824 3.24149 3.66846 4.49999V7.19999H1.16846C1.03585 7.19999 0.908672 7.25267 0.814904 7.34644C0.721136 7.44021 0.668457 7.56738 0.668457 7.69999V10.3C0.668457 10.4326 0.721136 10.5598 0.814904 10.6535C0.908672 10.7473 1.03585 10.8 1.16846 10.8H3.66846V17.5C3.66846 17.6326 3.72114 17.7598 3.8149 17.8535C3.90867 17.9473 4.03585 18 4.16846 18H7.16846C7.30107 18 7.42824 17.9473 7.52201 17.8535C7.61578 17.7598 7.66846 17.6326 7.66846 17.5V10.8H10.2885C10.3996 10.8016 10.5082 10.7661 10.5969 10.6991C10.6857 10.6321 10.7496 10.5374 10.7785 10.43L11.4985 7.82999C11.5184 7.75611 11.521 7.67866 11.5063 7.60358C11.4915 7.52851 11.4597 7.45782 11.4134 7.39696C11.367 7.3361 11.3073 7.2867 11.2388 7.25255C11.1704 7.2184 11.095 7.20042 11.0185 7.19999H7.66846V4.49999C7.69333 4.25247 7.80957 4.0231 7.99448 3.85669C8.17939 3.69027 8.41969 3.59875 8.66846 3.59999H11.1685C11.3011 3.59999 11.4282 3.54731 11.522 3.45355C11.6158 3.35978 11.6685 3.2326 11.6685 3.09999V0.499992Z" fill="white"/>
</svg>
