<svg width="19" height="18" viewBox="0 0 19 18" fill="none" xmlns="http://www.w3.org/2000/svg">
<path d="M12.8185 5.4C12.052 5.39737 11.2926 5.54589 10.5836 5.83707C9.8746 6.12826 9.22998 6.55638 8.68663 7.09695C8.14328 7.63752 7.71184 8.27992 7.41702 8.9874C7.1222 9.69488 6.96977 10.4535 6.96846 11.22V17.1C6.96846 17.3387 7.06328 17.5676 7.23206 17.7364C7.40085 17.9052 7.62976 18 7.86846 18H9.96846C10.2072 18 10.4361 17.9052 10.6049 17.7364C10.7736 17.5676 10.8685 17.3387 10.8685 17.1V11.22C10.8683 10.9474 10.9255 10.6778 11.0365 10.4288C11.1475 10.1798 11.3097 9.95704 11.5125 9.77494C11.7154 9.59284 11.9543 9.45554 12.2138 9.37198C12.4733 9.28842 12.7475 9.26049 13.0185 9.29C13.5045 9.35121 13.9511 9.58866 14.2737 9.95731C14.5962 10.326 14.7723 10.8002 14.7685 11.29V17.1C14.7685 17.3387 14.8633 17.5676 15.0321 17.7364C15.2008 17.9052 15.4298 18 15.6685 18H17.7685C18.0072 18 18.2361 17.9052 18.4049 17.7364C18.5736 17.5676 18.6685 17.3387 18.6685 17.1V11.22C18.6671 10.4535 18.5147 9.69488 18.2199 8.9874C17.9251 8.27992 17.4936 7.63752 16.9503 7.09695C16.4069 6.55638 15.7623 6.12826 15.0533 5.83707C14.3443 5.54589 13.5849 5.39737 12.8185 5.4Z" fill="white"/>
<path d="M4.26846 6.3H1.56846C1.0714 6.3 0.668457 6.70295 0.668457 7.2V17.1C0.668457 17.5971 1.0714 18 1.56846 18H4.26846C4.76551 18 5.16846 17.5971 5.16846 17.1V7.2C5.16846 6.70295 4.76551 6.3 4.26846 6.3Z" fill="white"/>
<path d="M2.91846 4.5C4.1611 4.5 5.16846 3.49264 5.16846 2.25C5.16846 1.00736 4.1611 0 2.91846 0C1.67582 0 0.668457 1.00736 0.668457 2.25C0.668457 3.49264 1.67582 4.5 2.91846 4.5Z" fill="white"/>
</svg>
