<svg width="19" height="16" viewBox="0 0 19 16" fill="none" xmlns="http://www.w3.org/2000/svg">
<path d="M5.74846 16C7.22715 16.0495 8.70076 15.802 10.0822 15.2723C11.4636 14.7426 12.7249 13.9413 13.7914 12.9158C14.8578 11.8903 15.7079 10.6615 16.2914 9.30188C16.8749 7.94227 17.1799 6.4795 17.1885 5C17.8661 4.16141 18.3693 3.19583 18.6685 2.16C18.6908 2.07816 18.689 1.99161 18.6633 1.91077C18.6375 1.82993 18.589 1.75825 18.5235 1.70436C18.458 1.65047 18.3783 1.61667 18.294 1.60702C18.2097 1.59738 18.1245 1.6123 18.0485 1.65C17.6939 1.82065 17.2948 1.87578 16.9073 1.8076C16.5198 1.73943 16.1634 1.5514 15.8885 1.27C15.5374 0.885577 15.1128 0.575529 14.6397 0.358226C14.1666 0.140922 13.6548 0.0207851 13.1344 0.0049322C12.6141 -0.0109207 12.0958 0.0778333 11.6104 0.265935C11.125 0.454037 10.6823 0.73766 10.3085 1.1C9.79665 1.59566 9.42178 2.21529 9.22027 2.89867C9.01876 3.58206 8.99746 4.30595 9.15846 5C5.80846 5.2 3.50846 3.61 1.66846 1.43C1.61318 1.3674 1.54087 1.32225 1.46036 1.30007C1.37985 1.27788 1.29462 1.27962 1.21508 1.30508C1.13555 1.33053 1.06514 1.37859 1.01247 1.44339C0.95979 1.5082 0.927125 1.58694 0.918459 1.67C0.567929 3.61442 0.820789 5.61955 1.64308 7.41607C2.46537 9.21259 3.8177 10.7145 5.51846 11.72C4.3781 13.0278 2.77667 13.8447 1.04846 14C0.955871 14.0154 0.870401 14.0593 0.804011 14.1256C0.73762 14.1919 0.693632 14.2774 0.678203 14.37C0.662774 14.4625 0.676676 14.5576 0.717963 14.6419C0.75925 14.7262 0.825856 14.7954 0.908459 14.84C2.41198 15.5914 4.06769 15.9882 5.74846 16Z" fill="white"/>
</svg>
