<svg width="69" height="56" viewBox="0 0 69 56" fill="none" xmlns="http://www.w3.org/2000/svg">
<path d="M56.143 3.35074C54.1962 1.39162 51.605 0.216284 48.8572 0.0459175C46.1095 -0.124449 43.3946 0.721905 41.2236 2.4257C39.2412 0.875371 36.8021 0.033561 34.2916 0.0330714C31.781 0.0325817 29.3419 0.873442 27.3587 2.423C25.097 0.636681 22.2433 -0.213379 19.38 0.0463637C16.5168 0.306105 13.86 1.65606 11.952 3.82063C10.0441 5.9852 9.02889 8.80114 9.11368 11.6936C9.19847 14.586 10.3769 17.3369 12.4083 19.3844L19.3458 26.3684C19.3512 26.3736 19.3566 26.3787 19.3626 26.3841C19.3687 26.3895 19.3704 26.3921 19.3742 26.3959C19.3814 26.4032 19.3892 26.4098 19.3964 26.4171C19.5067 26.5269 19.6186 26.6339 19.7322 26.7382C19.7907 26.7921 19.8498 26.8444 19.9092 26.8969C19.9574 26.9392 20.0059 26.9811 20.0546 27.0225C22.0322 28.7091 24.5263 29.6595 27.1178 29.7136C29.7094 29.7679 32.2405 28.9228 34.2861 27.3201C36.4571 29.0238 39.172 29.8703 41.9196 29.6999C44.6675 29.5296 47.2586 28.3542 49.2055 26.3951L56.1432 19.4121C58.2561 17.2806 59.4426 14.3924 59.4426 11.3814C59.4426 8.37033 58.2559 5.48225 56.143 3.35074ZM34.2894 2.99107C35.9389 2.99001 37.5516 3.48153 38.9233 4.40341C40.2952 5.32529 41.3643 6.63608 41.9957 8.16989C42.6271 9.7037 42.7921 11.3916 42.4701 13.0198C42.148 14.6481 41.3532 16.1437 40.1864 17.3171L34.2894 23.2525L28.3923 17.3171C27.2254 16.1437 26.4307 14.6481 26.1086 13.0198C25.7865 11.3915 25.9516 9.70363 26.583 8.16982C27.2143 6.63599 28.2836 5.3252 29.6554 4.40334C31.0273 3.48148 32.64 2.98997 34.2894 2.99107ZM19.0118 18.3647C19.0088 17.2618 19.2232 16.1694 19.6425 15.1506C20.0618 14.1317 20.6777 13.2067 21.4546 12.4291L23.0241 10.8493C22.9481 12.4284 23.2013 14.006 23.7674 15.4807C24.3334 16.9554 25.1999 18.2945 26.3109 19.4121L32.0873 25.2263C30.8414 26.1047 29.3798 26.6221 27.8618 26.7218C26.344 26.8215 24.8279 26.5001 23.4791 25.7922C22.1302 25.0842 21.0003 24.0173 20.2126 22.7074C19.4248 21.3977 19.0093 19.8953 19.0115 18.3642L19.0118 18.3647ZM14.4893 17.2892C13.0132 15.8038 12.1442 13.8152 12.0541 11.7162C11.9639 9.61728 12.659 7.56058 14.0021 5.95245C15.3453 4.3443 17.2388 3.30166 19.3086 3.03047C21.3784 2.75928 23.4739 3.27928 25.1813 4.48773L19.3732 10.3339C18.3222 11.3861 17.4889 12.6376 16.9217 14.0161C16.3545 15.3946 16.0645 16.8726 16.0686 18.3647C16.0686 18.5408 16.0727 18.7162 16.0808 18.8912L14.4893 17.2892ZM41.2275 26.7587C39.5236 26.7627 37.86 26.2374 36.4638 25.2544L42.2686 19.4121C43.3797 18.2945 44.246 16.9554 44.812 15.4807C45.3781 14.006 45.6313 12.4284 45.5554 10.8493L47.1249 12.4291C48.2913 13.6031 49.0854 15.0988 49.4071 16.7271C49.729 18.3554 49.5638 20.0432 48.9324 21.5771C48.3012 23.1109 47.2322 24.4218 45.8609 25.3441C44.4893 26.2665 42.8769 26.7587 41.2275 26.7587ZM54.062 17.3171L52.4982 18.8912C52.5061 18.7164 52.5101 18.541 52.5104 18.3647C52.5145 16.8726 52.2245 15.3946 51.6572 14.0161C51.09 12.6376 50.2566 11.3861 49.2056 10.3339L43.4015 4.49162C45.1119 3.29358 47.206 2.78351 49.2714 3.06184C51.3368 3.34014 53.2239 4.38669 54.561 5.9954C55.8982 7.6041 56.5885 9.65839 56.4961 11.7538C56.4038 13.8492 55.5355 15.8339 54.062 17.3171Z" fill="#025595"/>
<path d="M7.99589 37.4486C6.02089 37.4486 4.54443 37.8992 3.56651 38.8005C2.60777 39.6825 2.1284 40.9672 2.1284 42.6546V45.4733H11.735V47.3141H2.1284V55.8564H0V42.6258C0 40.4207 0.690293 38.695 2.07088 37.4486C3.45146 36.1831 5.39771 35.5503 7.90961 35.5503C10.3448 35.5503 12.3006 36.0776 13.7771 37.1323L13.0005 38.8867C11.6966 37.928 10.0284 37.4486 7.99589 37.4486Z" fill="#222222"/>
<path d="M21.3002 56.0003C19.9388 56.0003 18.8842 55.6168 18.1364 54.8498C17.4077 54.0828 17.0434 53.0186 17.0434 51.6572V34.5149H19.0855V51.4846C19.0855 52.3858 19.2964 53.0761 19.7183 53.5555C20.1401 54.0157 20.7729 54.2458 21.6166 54.2458C22.1535 54.2458 22.6137 54.1595 22.9972 53.9869L23.141 55.6839C22.5466 55.8948 21.933 56.0003 21.3002 56.0003Z" fill="#222222"/>
<path d="M31.8222 56.0003C30.3649 56.0003 29.0515 55.6743 27.8818 55.0223C26.7121 54.3512 25.7918 53.4308 25.1206 52.2612C24.4495 51.0915 24.114 49.7684 24.114 48.292C24.114 46.8155 24.4495 45.4925 25.1206 44.3228C25.7918 43.1531 26.7121 42.2423 27.8818 41.5904C29.0515 40.9385 30.3649 40.6125 31.8222 40.6125C33.2795 40.6125 34.593 40.9385 35.7626 41.5904C36.9323 42.2423 37.8431 43.1531 38.4951 44.3228C39.1662 45.4925 39.5017 46.8155 39.5017 48.292C39.5017 49.7684 39.1662 51.0915 38.4951 52.2612C37.8431 53.4308 36.9323 54.3512 35.7626 55.0223C34.593 55.6743 33.2795 56.0003 31.8222 56.0003ZM31.8222 54.1882C32.896 54.1882 33.8548 53.9486 34.6984 53.4692C35.5613 52.9706 36.2324 52.2708 36.7118 51.3695C37.1912 50.4683 37.4309 49.4425 37.4309 48.292C37.4309 47.1415 37.1912 46.1156 36.7118 45.2144C36.2324 44.3132 35.5613 43.6229 34.6984 43.1436C33.8548 42.645 32.896 42.3957 31.8222 42.3957C30.7484 42.3957 29.7801 42.645 28.9172 43.1436C28.0736 43.6229 27.4024 44.3132 26.9039 45.2144C26.4245 46.1156 26.1848 47.1415 26.1848 48.292C26.1848 49.4425 26.4245 50.4683 26.9039 51.3695C27.4024 52.2708 28.0736 52.9706 28.9172 53.4692C29.7801 53.9486 30.7484 54.1882 31.8222 54.1882Z" fill="#222222"/>
<path d="M45.6267 43.69C46.1061 42.6738 46.8156 41.9068 47.7551 41.3891C48.7139 40.8713 49.8931 40.6125 51.2929 40.6125V42.5971L50.8039 42.5683C49.2124 42.5683 47.9661 43.0573 47.0648 44.0352C46.1636 45.0131 45.713 46.3841 45.713 48.1482V55.8564H43.6709V40.7275H45.6267V43.69Z" fill="#222222"/>
<path d="M68.6558 40.7275V55.8564H66.7V52.8652C66.0864 53.8814 65.2715 54.658 64.2552 55.1949C63.2581 55.7318 62.1268 56.0003 60.8613 56.0003C59.4423 56.0003 58.1576 55.6743 57.0071 55.0223C55.8566 54.3704 54.9554 53.4596 54.3035 52.2899C53.6515 51.1203 53.3256 49.7876 53.3256 48.292C53.3256 46.7964 53.6515 45.4637 54.3035 44.294C54.9554 43.1244 55.8566 42.2232 57.0071 41.5904C58.1576 40.9385 59.4423 40.6125 60.8613 40.6125C62.0884 40.6125 63.191 40.8713 64.1689 41.3891C65.166 41.8876 65.9809 42.6258 66.6137 43.6037V40.7275H68.6558ZM61.0338 54.1882C62.0884 54.1882 63.0376 53.9486 63.8813 53.4692C64.7442 52.9706 65.4153 52.2708 65.8946 51.3695C66.3932 50.4683 66.6425 49.4425 66.6425 48.292C66.6425 47.1415 66.3932 46.1156 65.8946 45.2144C65.4153 44.3132 64.7442 43.6229 63.8813 43.1436C63.0376 42.645 62.0884 42.3957 61.0338 42.3957C59.96 42.3957 58.9917 42.645 58.1288 43.1436C57.2852 43.6229 56.614 44.3132 56.1155 45.2144C55.6361 46.1156 55.3964 47.1415 55.3964 48.292C55.3964 49.4425 55.6361 50.4683 56.1155 51.3695C56.614 52.2708 57.2852 52.9706 58.1288 53.4692C58.9917 53.9486 59.96 54.1882 61.0338 54.1882Z" fill="#222222"/>
</svg>
